<svg xmlns="http://www.w3.org/2000/svg" viewBox="0 0 300.04736 270.82399"><defs><style>.ed701c5e-aaf0-4142-bd54-317a981fb65b,.f32ae56d-72c8-4ad6-9326-2444dced7ca4{fill:#fff;}.f32ae56d-72c8-4ad6-9326-2444dced7ca4{font-size:48.35605px;font-family:FuturaStd-Book, Futura Std;}</style></defs><g id="f52bd5e9-181b-4c98-b196-ac7df3174512" data-name="Calque 2"><g id="f61ef5e8-08b5-4d96-adfc-1ac5372b62c5" data-name="Calque 1"><path class="ed701c5e-aaf0-4142-bd54-317a981fb65b" d="M60.76206,144.78408Q40.476,109.68374,49.75906,72.793q9.27855-36.88815,46.11527-58.17776Q133.061-6.8767,170.11476,3.23392q37.05827,10.108,57.61231,45.672,20.956,36.25944,10.77509,73.59026-10.178,37.33064-46.904,58.55476a98.69973,98.69973,0,0,1-49.49215,13.69291A82.64324,82.64324,0,0,1,94.6142,180.6212,107.19783,107.19783,0,0,1,60.76206,144.78408Zm7.9807-4.45779q15.33277,26.5298,41.23119,35.51087c17.26521,5.99367,52.93312-6.63746,69.76965-16.36806,16.682-9.64128,45.47223-34.44537,49.12951-52.88887q5.49469-27.66577-9.23584-53.15351-14.86385-25.71843-41.53063-34.025c-17.78327-5.5366-53.55471,7.23016-70.07759,16.77949C91.57889,45.68851,62.89455,70.04634,59.20556,87.732Q53.674,114.2639,68.74276,140.32629Z"/><circle class="ed701c5e-aaf0-4142-bd54-317a981fb65b" cx="177.51304" cy="79.19836" r="38.35058"/><text class="f32ae56d-72c8-4ad6-9326-2444dced7ca4" transform="translate(-0.00024 256.65579)">VISIONNAIRE</text></g></g></svg>